#!OML:ASF H:\Dans Jumps\Project 1\Capture day 1\Session 1\subject.ASF
:FULLY-SPECIFIED
:DEGREES
444
root 0.0846826 17.3786 -7.41043 10.976 -2.23471 -0.477195
lowerback 7.09016 0.580924 -0.804533
upperback 6.27262 0.711107 1.21595
thorax 2.48224 0.298453 1.67073
lowerneck -13.6057 -0.129453 -1.14971
upperneck 32.6333 -0.145387 0.79713
head 13.2081 -0.100333 0.491333
rclavicle -3.27995e-015 -3.37934e-015
rhumerus -30.7788 -20.8271 -74.4435
rradius 24.0219
rwrist 32.7892
rhand -19.0518 -22.2993
rfingers 7.12502
rthumb 7.25511 -52.1549
lclavicle -3.27995e-015 -3.37934e-015
lhumerus -29.8057 -4.08767 90.1272
lradius 30.7798
lwrist 20.2526
lhand -26.9454 -7.86777
lfingers 7.12502
lthumb -0.367348 22.1117
rfemur -28.1777 -2.83578 18.667
rtibia 35.6829
rfoot -17.9759 -1.50074
rtoes -2.16733
lfemur -26.1578 6.52117 -18.7539
ltibia 31.3968
lfoot -14.1324 5.80733
ltoes 0.0995271
445
root 0.0823414 17.3798 -7.40288 10.9594 -2.20429 -0.495858
lowerback 7.04949 0.576781 -0.784639
upperback 6.24653 0.706855 1.22047
thorax 2.47778 0.297167 1.6646
lowerneck -13.5889 -0.129176 -1.15103
upperneck 32.6822 -0.144444 0.796057
head 13.2254 -0.100316 0.491532
rclavicle -8.44835e-015 -1.19271e-015
rhumerus -30.4982 -20.93 -74.5756
rradius 23.9631
rwrist 32.8953
rhand -19.0924 -22.3175
rfingers 7.12502
rthumb 7.21598 -52.1745
lclavicle -8.44835e-015 -1.19271e-015
lhumerus -29.4989 -4.19389 90.2484
lradius 30.6343
lwrist 20.0515
lhand -26.9363 -7.77994
lfingers 7.12502
lthumb -0.358592 22.1995
rfemur -28.1057 -2.82714 18.6945
rtibia 35.6491
rfoot -17.935 -1.51781
rtoes -1.97119
lfemur -26.0977 6.50808 -18.7193
ltibia 31.3695
lfoot -14.1452 5.80699
ltoes 0.0874384
446
root 0.0799522 17.3806 -7.39565 10.9463 -2.17178 -0.515644
lowerback 7.00884 0.572969 -0.765908
upperback 6.22041 0.702959 1.22639
thorax 2.47324 0.295986 1.66057
lowerneck -13.5725 -0.129469 -1.15323
upperneck 32.7224 -0.144755 0.79715
head 13.2391 -0.100638 0.492502
rclavicle 1.38155e-014 1.07344e-014
rhumerus -30.2326 -20.9888 -74.7176
rradius 23.926
rwrist 32.9507
rhand -19.1449 -22.3302
rfingers 7.12502
rthumb 7.1653 -52.1889
lclavicle 1.38155e-014 1.07344e-014
lhumerus -29.2018 -4.26678 90.3508
lradius 30.4933
lwrist 19.8411
lhand -26.9493 -7.63077
lfingers 7.12502
lthumb -0.371116 22.3487
rfemur -28.0407 -2.81134 18.7226
rtibia 35.619
rfoot -17.8819 -1.53147
rtoes -1.68535
lfemur -26.0462 6.48765 -18.6828
ltibia 31.3478
lfoot -14.157 5.81111
ltoes 0.0823774
447
root 0.0774509 17.3812 -7.38863 10.9351 -2.13803 -0.530315
lowerback 6.96651 0.568473 -0.755912
upperback 6.19731 0.697744 1.23189
thorax 2.47276 0.293801 1.66109
lowerneck -13.5599 -0.128203 -1.15289
upperneck 32.7519 -0.143317 0.797866
head 13.249 -0.0999112 0.49309
rclavicle -7.95139e-016 -4.17448e-015
rhumerus -29.9733 -21.0072 -74.871
rradius 23.9029
rwrist 32.9663
rhand -19.2093 -22.3262
rfingers 7.12502
rthumb 7.10315 -52.187
lclavicle -7.95139e-016 -4.17448e-015
lhumerus -28.9118 -4.30991 90.4346
lradius 30.3644
lwrist 19.6502
lhand -26.9445 -7.39372
lfingers 7.12502
lthumb -0.366495 22.5857
rfemur -27.9812 -2.79063 18.7445
rtibia 35.5936
rfoot -17.8181 -1.54
rtoes -1.31688
lfemur -25.9995 6.45867 -18.6508
ltibia 31.3282
lfoot -14.1669 5.82074
ltoes 0.0834349
448
root 0.0748117 17.3818 -7.38153 10.9226 -2.10099 -0.539335
lowerback 6.92249 0.561164 -0.756514
upperback 6.17906 0.688285 1.2382
thorax 2.47832 0.289038 1.66866
lowerneck -13.5535 -0.125278 -1.15287
upperneck 32.7711 -0.139482 0.799078
head 13.2557 -0.0981046 0.494239
rclavicle -5.76476e-015 -3.18055e-015
rhumerus -29.7149 -20.9962 -75.0294
rradius 23.8764
rwrist 32.9786
rhand -19.3043 -22.2938
rfingers 7.12502
rthumb 7.01141 -52.1577
lclavicle -5.76476e-015 -3.18055e-015
lhumerus -28.6323 -4.33145 90.5066
lradius 30.2426
lwrist 19.4811
lhand -26.9611 -7.1405
lfingers 7.12502
lthumb -0.382527 22.8389
rfemur -27.922 -2.77073 18.7605
rtibia 35.5727
rfoot -17.7483 -1.54465
rtoes -0.887002
lfemur -25.9513 6.42191 -18.6235
ltibia 31.3074
lfoot -14.1744 5.83254
ltoes 0.0812454
449
root 0.0720566 17.3823 -7.37434 10.9079 -2.05863 -0.540636
lowerback 6.87773 0.550526 -0.768836
upperback 6.16494 0.67387 1.24508
thorax 2.48869 0.281322 1.68367
lowerneck -13.5508 -0.121744 -1.1516
upperneck 32.7803 -0.133963 0.796971
head 13.2591 -0.0958323 0.494068
rclavicle -4.87022e-015 -1.59028e-014
rhumerus -29.4576 -20.9468 -75.1959
rradius 23.8497
rwrist 32.9729
rhand -19.3988 -22.2695
rfingers 7.12502
rthumb 6.92021 -52.1364
lclavicle -4.87022e-015 -1.59028e-014
lhumerus -28.3613 -4.34248 90.5705
lradius 30.125
lwrist 19.3559
lhand -27.0036 -6.95644
lfingers 7.12502
lthumb -0.423592 23.0229
rfemur -27.8617 -2.75922 18.7697
rtibia 35.5554
rfoot -17.6749 -1.54524
rtoes -0.427209
lfemur -25.8988 6.37695 -18.6032
ltibia 31.2823
lfoot -14.1798 5.8452
ltoes 0.06907
450
root 0.0692192 17.3829 -7.36694 10.8914 -2.0123 -0.536313
lowerback 6.83191 0.536328 -0.790198
upperback 6.15402 0.654324 1.25292
thorax 2.50309 0.27066 1.70498
lowerneck -13.543 -0.117844 -1.15711
upperneck 32.7748 -0.126904 0.797408
head 13.2549 -0.0933798 0.496227
rclavicle 3.57812e-015 2.5842e-015
rhumerus -29.2079 -20.85 -75.3714
rradius 23.8296
rwrist 32.9565
rhand -19.4976 -22.2499
rfingers 7.12502
rthumb 6.8248 -52.1199
lclavicle 3.57812e-015 2.5842e-015
lhumerus -28.1021 -4.3547 90.6317
lradius 29.9958
lwrist 19.2616
lhand -27.1116 -6.95926
lfingers 7.12502
lthumb -0.527911 23.0198
rfemur -27.7989 -2.7556 18.7735
rtibia 35.5401
rfoot -17.603 -1.5372
rtoes 0.0679149
lfemur -25.8419 6.32873 -18.5883
ltibia 31.2519
lfoot -14.1827 5.85615
ltoes 0.0525413
451
root 0.0663908 17.3836 -7.3594 10.8734 -1.96127 -0.527022
lowerback 6.78704 0.519069 -0.816663
upperback 6.14396 0.63051 1.26099
thorax 2.518 0.257674 1.72959
lowerneck -13.5306 -0.11466 -1.16507
upperneck 32.7592 -0.119615 0.795968
head 13.2454 -0.0913614 0.498052
rclavicle -1.78906e-015 1.78906e-015
rhumerus -28.9707 -20.7174 -75.5495
rradius 23.8131
rwrist 32.9405
rhand -19.5949 -22.2254
rfingers 7.12502
rthumb 6.73088 -52.0984
lclavicle -1.78906e-015 1.78906e-015
lhumerus -27.8505 -4.37721 90.6901
lradius 29.862
lwrist 19.221
lhand -27.2667 -7.07929
lfingers 7.12502
lthumb -0.677713 22.8994
rfemur -27.7339 -2.76549 18.7739
rtibia 35.5251
rfoot -17.5351 -1.52473
rtoes 0.548451
lfemur -25.7806 6.27824 -18.5786
ltibia 31.2169
lfoot -14.1855 5.86413
ltoes 0.0299294
452
root 0.0635878 17.3846 -7.3519 10.8561 -1.90745 -0.519393
lowerback 6.7434 0.499755 -0.841709
upperback 6.13271 0.604036 1.27058
thorax 2.53112 0.243395 1.75503
lowerneck -13.5116 -0.111896 -1.17388
upperneck 32.736 -0.111461 0.790605
head 13.2313 -0.0895763 0.498564
rclavicle -7.05686e-015 -5.76476e-015
rhumerus -28.7486 -20.5636 -75.7243
rradius 23.7986
rwrist 32.9211
rhand -19.6797 -22.2037
rfingers 7.12502
rthumb 6.64903 -52.0793
lclavicle -7.05686e-015 -5.76476e-015
lhumerus -27.6112 -4.40073 90.7414
lradius 29.7409
lwrist 19.2064
lhand -27.4618 -7.28245
lfingers 7.12502
lthumb -0.866121 22.6955
rfemur -27.6684 -2.78387 18.7774
rtibia 35.5092
rfoot -17.4722 -1.50869
rtoes 1.00405
lfemur -25.7191 6.22808 -18.5671
ltibia 31.1791
lfoot -14.1885 5.86965
ltoes 0.00990058
